<?xml version="1.0" encoding="utf-8"?>
<svg xmlns="http://www.w3.org/2000/svg">
<svg></svg>

<!-- Menu Top Bar -->

<svg id="icoMenu" viewBox="0 0 24 24" fill="none" stroke="currentColor"  stroke-linecap="round" stroke-linejoin="round">
  <path d="M4 4m0 2a2 2 0 0 1 2 -2h12a2 2 0 0 1 2 2v12a2 2 0 0 1 -2 2h-12a2 2 0 0 1 -2 -2z" />
  <path d="M9 4v16" />
  <path d="M15 10l-2 2l2 2" />
</svg>

<svg id="icoHome" viewBox="0 0 24 24" fill="none" stroke="currentColor" stroke-linecap="round" stroke-linejoin="round">
  <path d="M 5,12 H 3 l 9,-9 9,9 H 19 M 5,12 v 7 a 2,2 0 0 0 2,2 h 10 a 2,2 0 0 0 2,-2 v -7" />
    <path d="m 9,21 v -6 a 2,2 0 0 1 2,-2 h 2 a 2,2 0 0 1 2,2 v 6" />
</svg>

<svg id="icoProyectos" viewBox="0 0 24 24" fill="none" stroke="currentColor" stroke-linecap="round" stroke-linejoin="round">
  <path d="M3 7m0 2a2 2 0 0 1 2 -2h14a2 2 0 0 1 2 2v9a2 2 0 0 1 -2 2h-14a2 2 0 0 1 -2 -2z" /><path d="M8 7v-2a2 2 0 0 1 2 -2h4a2 2 0 0 1 2 2v2" /><path d="M12 12l0 .01" /><path d="M3 13a20 20 0 0 0 18 0" />
</svg>

<svg id="icoHabilidades" viewBox="0 0 24 24" fill="none" stroke="currentColor" stroke-linecap="round" stroke-linejoin="round">
  <path d="m 4,13 a 8,8 0 0 1 7,7 6,6 0 0 0 3,-5 9,9 0 0 0 6,-8 3,3 0 0 0 -3,-3 9,9 0 0 0 -8,6 6,6 0 0 0 -5,3" />
  <path d="m 7,14 a 6,6 0 0 0 -3,6 6,6 0 0 0 6,-3 m 4,-8 a 1,1 0 1 0 2,0 1,1 0 1 0 -2,0" />
</svg>

<svg id="icoFormacion" viewBox="0 0 24 24" fill="none" stroke="currentColor" stroke-linecap="round" stroke-linejoin="round">
  <path d="M22 9l-10 -4l-10 4l10 4l10 -4v6" /><path d="M6 10.6v5.4a6 3 0 0 0 12 0v-5.4" />
</svg>

<svg id="icoExperiencia" viewBox="0 0 24 24"  fill="none" stroke="currentColor" stroke-linecap="round" stroke-linejoin="round">
  <path d="M3 21l18 0" /><path d="M9 8l1 0" /><path d="M9 12l1 0" /><path d="M9 16l1 0" /><path d="M14 8l1 0" /><path d="M14 12l1 0" /><path d="M14 16l1 0" /><path d="M5 21v-16a2 2 0 0 1 2 -2h10a2 2 0 0 1 2 2v16" />
</svg>

<!-- Portada -->

<svg id="icoGitHub" viewBox="0 0 24 24" fill="none" stroke="currentColor" stroke-linecap="round" stroke-linejoin="round">
  <path d="M9 19c-4.3 1.4 -4.3 -2.5 -6 -3m12 5v-3.5c0 -1 .1 -1.4 -.5 -2c2.8 -.3 5.5 -1.4 5.5 -6a4.6 4.6 0 0 0 -1.3 -3.2a4.2 4.2 0 0 0 -.1 -3.2s-1.1 -.3 -3.5 1.3a12.3 12.3 0 0 0 -6.2 0c-2.4 -1.6 -3.5 -1.3 -3.5 -1.3a4.2 4.2 0 0 0 -.1 3.2a4.6 4.6 0 0 0 -1.3 3.2c0 4.6 2.7 5.7 5.5 6c-.6 .6 -.6 1.2 -.5 2v3.5" />
</svg>

<svg id="icoLinkedIn" viewBox="0 0 24 24" fill="none" stroke="currentColor" stroke-linecap="round" stroke-linejoin="round">
  <path stroke="none" d="M0 0h24v24H0z" fill="none"/>
  <path d="M4 4m0 2a2 2 0 0 1 2 -2h12a2 2 0 0 1 2 2v12a2 2 0 0 1 -2 2h-12a2 2 0 0 1 -2 -2z" /><path d="M8 11l0 5" /><path d="M8 8l0 .01" /><path d="M12 16l0 -5" /><path d="M16 16v-3a2 2 0 0 0 -4 0" />
</svg>

<svg  id="icoCV" viewBox="0 0 24 24" fill="none" stroke="currentColor" stroke-linecap="round" stroke-linejoin="round">
  <path d="M14 3v4a1 1 0 0 0 1 1h4" />
  <path d="M17 21h-10a2 2 0 0 1 -2 -2v-14a2 2 0 0 1 2 -2h7l5 5v11a2 2 0 0 1 -2 2z" />
  <path d="M11 12.5a1.5 1.5 0 0 0 -3 0v3a1.5 1.5 0 0 0 3 0" />
  <path d="M13 11l1.5 6l1.5 -6" />
</svg>

<svg id="icoAnglesDown" viewBox="0 0 24 24" fill="none" stroke-linecap="round" stroke-linejoin="round">
  <path d="M7 7l5 5l5 -5" />
  <path d="M7 13l5 5l5 -5" />
</svg>

<!-- Habilidades -->

<svg id="icoDesktop" viewBox="0 0 24 24" fill="none" stroke="currentColor" stroke-linecap="round" stroke-linejoin="round">
  <path d="M3 5a1 1 0 0 1 1 -1h16a1 1 0 0 1 1 1v10a1 1 0 0 1 -1 1h-16a1 1 0 0 1 -1 -1v-10z" /><path d="M7 20h10" /><path d="M9 16v4" /><path d="M15 16v4" />
</svg>

<svg id="icoMobile" viewBox="0 0 24 24" fill="none" stroke="currentColor" stroke-linecap="round" stroke-linejoin="round">
  <path d="M6 5a2 2 0 0 1 2 -2h8a2 2 0 0 1 2 2v14a2 2 0 0 1 -2 2h-8a2 2 0 0 1 -2 -2v-14z" />
  <path d="M11 4h2" />
  <path d="M12 17v.01" />
</svg>


<svg id="icoLaptopCode" viewBox="0 0 640 512" stroke="currentColor">
  <path d="M255.03 261.65c6.25 6.25 16.38 6.25 22.63 0l11.31-11.31c6.25-6.25 6.25-16.38 0-22.63L253.25 192l35.71-35.72c6.25-6.25 6.25-16.38 0-22.63l-11.31-11.31c-6.25-6.25-16.38-6.25-22.63 0l-58.34 58.34c-6.25 6.25-6.25 16.38 0 22.63zm96.01-11.3l11.31 11.31c6.25 6.25 16.38 6.25 22.63 0l58.34-58.34c6.25-6.25 6.25-16.38 0-22.63l-58.34-58.34c-6.25-6.25-16.38-6.25-22.63 0l-11.31 11.31c-6.25 6.25-6.25 16.38 0 22.63L386.75 192l-35.71 35.72c-6.25 6.25-6.25 16.38 0 22.63M624 416H381.54c-.74 19.81-14.71 32-32.74 32H288c-18.69 0-33.02-17.47-32.77-32H16c-8.8 0-16 7.2-16 16v16c0 35.2 28.8 64 64 64h512c35.2 0 64-28.8 64-64v-16c0-8.8-7.2-16-16-16M576 48c0-26.4-21.6-48-48-48H112C85.6 0 64 21.6 64 48v336h512zm-64 272H128V64h384z"/>
</svg>

<svg id="icoData" viewBox="0 0 24 24" stroke="currentColor" fill="none" stroke-linecap="round" stroke-linejoin="round">
  <path d="M12 6m-8 0a8 3 0 1 0 16 0a8 3 0 1 0 -16 0" /><path d="M4 6v6a8 3 0 0 0 16 0v-6" /><path d="M4 12v6a8 3 0 0 0 16 0v-6" />
</svg>

<svg id="icoNetwork" viewBox="0 0 640 512" fill="currentColor" stroke="currentColor" stroke-linecap="round" stroke-linejoin="round" >
  <path d="M256 64H384v64H256V64zM240 0c-26.5 0-48 21.5-48 48v96c0 26.5 21.5 48 48 48h48v32H32c-17.7 0-32 14.3-32 32s14.3 32 32 32h96v32H80c-26.5 0-48 21.5-48 48v96c0 26.5 21.5 48 48 48H240c26.5 0 48-21.5 48-48V368c0-26.5-21.5-48-48-48H192V288H448v32H400c-26.5 0-48 21.5-48 48v96c0 26.5 21.5 48 48 48H560c26.5 0 48-21.5 48-48V368c0-26.5-21.5-48-48-48H512V288h96c17.7 0 32-14.3 32-32s-14.3-32-32-32H352V192h48c26.5 0 48-21.5 48-48V48c0-26.5-21.5-48-48-48H240zM96 448V384H224v64H96zm320-64H544v64H416V384z"/>
</svg>

<svg id="icoUnity" viewBox="0 0 24 24" stroke="currentColor" fill="none" stroke-linecap="round" stroke-linejoin="round">
  <path d="M14 3l6 4v7" /><path d="M18 17l-6 4l-6 -4" /><path d="M4 14v-7l6 -4" /><path d="M4 7l8 5v9" /><path d="M20 7l-8 5" />
</svg>

<svg id="icoTools" viewBox="0 0 24 24" stroke="currentColor" fill="none" stroke-linecap="round" stroke-linejoin="round">
  <path d="M7 10h3v-3l-3.5 -3.5a6 6 0 0 1 8 8l6 6a2 2 0 0 1 -3 3l-6 -6a6 6 0 0 1 -8 -8l3.5 3.5" />
</svg>

<!-- Proyectos -->

<svg id="icoLinkVideo" viewBox="0 0 16 16" fill="none" stroke="currentColor" stroke-linecap="round" stroke-linejoin="round" stroke-width="1.5">
  <path d="M3 2.5h10c.83 0 1.5.67 1.5 1.5v9c0 .83-.67 1.5-1.5 1.5H3A1.5 1.5 0 0 1 1.5 13V4c0-.83.67-1.5 1.5-1.5m-1.5 3h13"/>
  <path d="m3.5 5.5l2-3m1.5 3l2-3m1.5 3l2-3M6.5 8v4l4-2z"/>
</svg>

<svg id="icoLinkWeb" viewBox="0 0 512 512" fill="currentColor" stroke="currentColor" >
  <path stroke="none" d="M352 256c0 22.2-1.2 43.6-3.3 64H163.3c-2.2-20.4-3.3-41.8-3.3-64s1.2-43.6 3.3-64H348.7c2.2 20.4 3.3 41.8 3.3 64zm28.8-64H503.9c5.3 20.5 8.1 41.9 8.1 64s-2.8 43.5-8.1 64H380.8c2.1-20.6 3.2-42 3.2-64s-1.1-43.4-3.2-64zm112.6-32H376.7c-10-63.9-29.8-117.4-55.3-151.6c78.3 20.7 142 77.5 171.9 151.6zm-149.1 0H167.7c6.1-36.4 15.5-68.6 27-94.7c10.5-23.6 22.2-40.7 33.5-51.5C239.4 3.2 248.7 0 256 0s16.6 3.2 27.8 13.8c11.3 10.8 23 27.9 33.5 51.5c11.6 26 20.9 58.2 27 94.7zm-209 0H18.6C48.6 85.9 112.2 29.1 190.6 8.4C165.1 42.6 145.3 96.1 135.3 160zM8.1 192H131.2c-2.1 20.6-3.2 42-3.2 64s1.1 43.4 3.2 64H8.1C2.8 299.5 0 278.1 0 256s2.8-43.5 8.1-64zM194.7 446.6c-11.6-26-20.9-58.2-27-94.6H344.3c-6.1 36.4-15.5 68.6-27 94.6c-10.5 23.6-22.2 40.7-33.5 51.5C272.6 508.8 263.3 512 256 512s-16.6-3.2-27.8-13.8c-11.3-10.8-23-27.9-33.5-51.5zM135.3 352c10 63.9 29.8 117.4 55.3 151.6C112.2 482.9 48.6 426.1 18.6 352H135.3zm358.1 0c-30 74.1-93.6 130.9-171.9 151.6c25.5-34.2 45.2-87.7 55.3-151.6H493.4z"/>
</svg>

<svg id="icoBtnClose" viewBox="0 0 1024 1024" fill="currentColor" stroke="currentColor" >
  <path d="M195.2 195.2a64 64 0 0 1 90.496 0L512 421.504 738.304 195.2a64 64 0 0 1 90.496 90.496L602.496 512 828.8 738.304a64 64 0 0 1-90.496 90.496L512 602.496 285.696 828.8a64 64 0 0 1-90.496-90.496L421.504 512 195.2 285.696a64 64 0 0 1 0-90.496z"></path>
</svg>

</svg>