<?xml version="1.0" encoding="utf-8"?>
<svg xmlns="http://www.w3.org/2000/svg">

<!-- Menu Top Bar -->

<symbol id="icoMenu" viewBox="0 0 24 24" fill="none" stroke-linecap="round" stroke-linejoin="round">
  <path stroke="none" d="M0 0h24v24H0z" fill="none"/><path d="M4 4m0 2a2 2 0 0 1 2 -2h12a2 2 0 0 1 2 2v12a2 2 0 0 1 -2 2h-12a2 2 0 0 1 -2 -2z" /><path d="M9 4v16" /><path d="M15 10l-2 2l2 2" />
</symbol>

<symbol id="icoHome" viewBox="0 0 24 24" fill="none" stroke-linecap="round" stroke-linejoin="round">
  <path stroke="none" d="M0 0h24v24H0z" fill="none"/>
  <path d="M5 12l-2 0l9 -9l9 9l-2 0" /><path d="M5 12v7a2 2 0 0 0 2 2h10a2 2 0 0 0 2 -2v-7" /><path d="M9 21v-6a2 2 0 0 1 2 -2h2a2 2 0 0 1 2 2v6" />
</symbol>

<symbol id="icoProyectos" viewBox="0 0 24 24" fill="none" stroke-linecap="round" stroke-linejoin="round">
  <path stroke="none" d="M0 0h24v24H0z" fill="none"/>
  <path d="M3 7m0 2a2 2 0 0 1 2 -2h14a2 2 0 0 1 2 2v9a2 2 0 0 1 -2 2h-14a2 2 0 0 1 -2 -2z" /><path d="M8 7v-2a2 2 0 0 1 2 -2h4a2 2 0 0 1 2 2v2" /><path d="M12 12l0 .01" /><path d="M3 13a20 20 0 0 0 18 0" />
</symbol>

<symbol id="icoHabilidades" viewBox="0 0 24 24" fill="none" stroke-linecap="round" stroke-linejoin="round">
  <path stroke="none" d="M0 0h24v24H0z" fill="none"/>
  <path d="M4 13a8 8 0 0 1 7 7a6 6 0 0 0 3 -5a9 9 0 0 0 6 -8a3 3 0 0 0 -3 -3a9 9 0 0 0 -8 6a6 6 0 0 0 -5 3" /><path d="M7 14a6 6 0 0 0 -3 6a6 6 0 0 0 6 -3" /><path d="M15 9m-1 0a1 1 0 1 0 2 0a1 1 0 1 0 -2 0" />
</symbol>

<symbol id="icoFormacion" viewBox="0 0 24 24" fill="none" stroke-linecap="round" stroke-linejoin="round">
  <path stroke="none" d="M0 0h24v24H0z" fill="none"/>
  <path d="M22 9l-10 -4l-10 4l10 4l10 -4v6" /><path d="M6 10.6v5.4a6 3 0 0 0 12 0v-5.4" />
</symbol>

<symbol id="icoExperiencia" viewBox="0 0 24 24"  fill="none" stroke-linecap="round" stroke-linejoin="round">
  <path stroke="none" d="M0 0h24v24H0z" fill="none"/>
  <path d="M3 21l18 0" /><path d="M9 8l1 0" /><path d="M9 12l1 0" /><path d="M9 16l1 0" /><path d="M14 8l1 0" /><path d="M14 12l1 0" /><path d="M14 16l1 0" /><path d="M5 21v-16a2 2 0 0 1 2 -2h10a2 2 0 0 1 2 2v16" />
</symbol>

<!-- Portada -->

<symbol id="icoGitHub" viewBox="0 0 24 24" fill="none" stroke="currentColor" stroke-linecap="round" stroke-linejoin="round">
  <path stroke="none" d="M0 0h24v24H0z" fill="none"/><path d="M9 19c-4.3 1.4 -4.3 -2.5 -6 -3m12 5v-3.5c0 -1 .1 -1.4 -.5 -2c2.8 -.3 5.5 -1.4 5.5 -6a4.6 4.6 0 0 0 -1.3 -3.2a4.2 4.2 0 0 0 -.1 -3.2s-1.1 -.3 -3.5 1.3a12.3 12.3 0 0 0 -6.2 0c-2.4 -1.6 -3.5 -1.3 -3.5 -1.3a4.2 4.2 0 0 0 -.1 3.2a4.6 4.6 0 0 0 -1.3 3.2c0 4.6 2.7 5.7 5.5 6c-.6 .6 -.6 1.2 -.5 2v3.5" />
</symbol>

<symbol id="icoLinkedIn" viewBox="0 0 24 24" fill="none" stroke="currentColor" stroke-linecap="round" stroke-linejoin="round">
  <path stroke="none" d="M0 0h24v24H0z" fill="none"/>
  <path d="M4 4m0 2a2 2 0 0 1 2 -2h12a2 2 0 0 1 2 2v12a2 2 0 0 1 -2 2h-12a2 2 0 0 1 -2 -2z" /><path d="M8 11l0 5" /><path d="M8 8l0 .01" /><path d="M12 16l0 -5" /><path d="M16 16v-3a2 2 0 0 0 -4 0" />
</symbol>

<symbol  id="icoCV" viewBox="0 0 24 24" fill="none" stroke="currentColor" stroke-linecap="round" stroke-linejoin="round">
  <path stroke="none" d="M0 0h24v24H0z" fill="none"/>
  <path d="M14 3v4a1 1 0 0 0 1 1h4" /><path d="M17 21h-10a2 2 0 0 1 -2 -2v-14a2 2 0 0 1 2 -2h7l5 5v11a2 2 0 0 1 -2 2z" /><path d="M11 12.5a1.5 1.5 0 0 0 -3 0v3a1.5 1.5 0 0 0 3 0" /><path d="M13 11l1.5 6l1.5 -6" />
</symbol>

<symbol id="anglesDown" viewBox="0 0 24 24" fill="none" stroke-linecap="round" stroke-linejoin="round">
  <path stroke="none" d="M0 0h24v24H0z" fill="none"/>
  <path d="M7 7l5 5l5 -5" /><path d="M7 13l5 5l5 -5" />
</symbol>

<!-- Habilidades -->

<symbol id="icoDesktop" viewBox="0 0 24 24" fill="none" stroke-linecap="round" stroke-linejoin="round">
  <path stroke="none" d="M0 0h24v24H0z" fill="none"/>
  <path d="M3 5a1 1 0 0 1 1 -1h16a1 1 0 0 1 1 1v10a1 1 0 0 1 -1 1h-16a1 1 0 0 1 -1 -1v-10z" /><path d="M7 20h10" /><path d="M9 16v4" /><path d="M15 16v4" />
</symbol>

<symbol id="icoMobile" viewBox="0 0 24 24" fill="none" stroke-linecap="round" stroke-linejoin="round">
  <path stroke="none" d="M0 0h24v24H0z" fill="none"/>
  <path d="M6 5a2 2 0 0 1 2 -2h8a2 2 0 0 1 2 2v14a2 2 0 0 1 -2 2h-8a2 2 0 0 1 -2 -2v-14z" />
  <path d="M11 4h2" />
  <path d="M12 17v.01" />
</symbol>

<symbol id="icoLaptopCode" viewBox="0 0 640 512">
  <path d="M64 96c0-35.3 28.7-64 64-64H512c35.3 0 64 28.7 64 64V352H512V96H128V352H64V96zM0 403.2C0 392.6 8.6 384 19.2 384H620.8c10.6 0 19.2 8.6 19.2 19.2c0 42.4-34.4 76.8-76.8 76.8H76.8C34.4 480 0 445.6 0 403.2zM281 209l-31 31 31 31c9.4 9.4 9.4 24.6 0 33.9s-24.6 9.4-33.9 0l-48-48c-9.4-9.4-9.4-24.6 0-33.9l48-48c9.4-9.4 24.6-9.4 33.9 0s9.4 24.6 0 33.9zM393 175l48 48c9.4 9.4 9.4 24.6 0 33.9l-48 48c-9.4 9.4-24.6 9.4-33.9 0s-9.4-24.6 0-33.9l31-31-31-31c-9.4-9.4-9.4-24.6 0-33.9s24.6-9.4 33.9 0z" />
</symbol>

<symbol id="icoData" viewBox="0 0 24 24" fill="none" stroke-linecap="round" stroke-linejoin="round">
  <path stroke="none" d="M0 0h24v24H0z" fill="none"/>
  <path d="M12 6m-8 0a8 3 0 1 0 16 0a8 3 0 1 0 -16 0" /><path d="M4 6v6a8 3 0 0 0 16 0v-6" /><path d="M4 12v6a8 3 0 0 0 16 0v-6" />
</symbol>

<symbol id="icoNetwork" viewBox="0 0 640 512">
  <path d="M256 64H384v64H256V64zM240 0c-26.5 0-48 21.5-48 48v96c0 26.5 21.5 48 48 48h48v32H32c-17.7 0-32 14.3-32 32s14.3 32 32 32h96v32H80c-26.5 0-48 21.5-48 48v96c0 26.5 21.5 48 48 48H240c26.5 0 48-21.5 48-48V368c0-26.5-21.5-48-48-48H192V288H448v32H400c-26.5 0-48 21.5-48 48v96c0 26.5 21.5 48 48 48H560c26.5 0 48-21.5 48-48V368c0-26.5-21.5-48-48-48H512V288h96c17.7 0 32-14.3 32-32s-14.3-32-32-32H352V192h48c26.5 0 48-21.5 48-48V48c0-26.5-21.5-48-48-48H240zM96 448V384H224v64H96zm320-64H544v64H416V384z"/>
</symbol>

<symbol id="icoUnity" viewBox="0 0 24 24" fill="none" stroke-linecap="round" stroke-linejoin="round">
  <path stroke="none" d="M0 0h24v24H0z" fill="none"/>
  <path d="M14 3l6 4v7" /><path d="M18 17l-6 4l-6 -4" /><path d="M4 14v-7l6 -4" /><path d="M4 7l8 5v9" /><path d="M20 7l-8 5" />
</symbol>

<symbol id="icoTools" viewBox="0 0 24 24" fill="none" stroke-linecap="round" stroke-linejoin="round">
  <path stroke="none" d="M0 0h24v24H0z" fill="none"/><path d="M7 10h3v-3l-3.5 -3.5a6 6 0 0 1 8 8l6 6a2 2 0 0 1 -3 3l-6 -6a6 6 0 0 1 -8 -8l3.5 3.5" />
</symbol>


<!-- Proyectos -->

<symbol id="icoLinkVideo" viewBox="0 0 16 16" fill="none" stroke="currentColor" stroke-linecap="round" stroke-linejoin="round" stroke-width="1.5">
    <path d="M3 2.5h10c.83 0 1.5.67 1.5 1.5v9c0 .83-.67 1.5-1.5 1.5H3A1.5 1.5 0 0 1 1.5 13V4c0-.83.67-1.5 1.5-1.5m-1.5 3h13"/>
    <path d="m3.5 5.5l2-3m1.5 3l2-3m1.5 3l2-3M6.5 8v4l4-2z"/>
</symbol>

<symbol id="icoLinkWeb" viewBox="0 0 512 512">
  <path d="M352 256c0 22.2-1.2 43.6-3.3 64H163.3c-2.2-20.4-3.3-41.8-3.3-64s1.2-43.6 3.3-64H348.7c2.2 20.4 3.3 41.8 3.3 64zm28.8-64H503.9c5.3 20.5 8.1 41.9 8.1 64s-2.8 43.5-8.1 64H380.8c2.1-20.6 3.2-42 3.2-64s-1.1-43.4-3.2-64zm112.6-32H376.7c-10-63.9-29.8-117.4-55.3-151.6c78.3 20.7 142 77.5 171.9 151.6zm-149.1 0H167.7c6.1-36.4 15.5-68.6 27-94.7c10.5-23.6 22.2-40.7 33.5-51.5C239.4 3.2 248.7 0 256 0s16.6 3.2 27.8 13.8c11.3 10.8 23 27.9 33.5 51.5c11.6 26 20.9 58.2 27 94.7zm-209 0H18.6C48.6 85.9 112.2 29.1 190.6 8.4C165.1 42.6 145.3 96.1 135.3 160zM8.1 192H131.2c-2.1 20.6-3.2 42-3.2 64s1.1 43.4 3.2 64H8.1C2.8 299.5 0 278.1 0 256s2.8-43.5 8.1-64zM194.7 446.6c-11.6-26-20.9-58.2-27-94.6H344.3c-6.1 36.4-15.5 68.6-27 94.6c-10.5 23.6-22.2 40.7-33.5 51.5C272.6 508.8 263.3 512 256 512s-16.6-3.2-27.8-13.8c-11.3-10.8-23-27.9-33.5-51.5zM135.3 352c10 63.9 29.8 117.4 55.3 151.6C112.2 482.9 48.6 426.1 18.6 352H135.3zm358.1 0c-30 74.1-93.6 130.9-171.9 151.6c25.5-34.2 45.2-87.7 55.3-151.6H493.4z"/>
</symbol>

<symbol id="icoBtnClose" viewBox="0 0 1024.00 1024.00">
  <path d="M195.2 195.2a64 64 0 0 1 90.496 0L512 421.504 738.304 195.2a64 64 0 0 1 90.496 90.496L602.496 512 828.8 738.304a64 64 0 0 1-90.496 90.496L512 602.496 285.696 828.8a64 64 0 0 1-90.496-90.496L421.504 512 195.2 285.696a64 64 0 0 1 0-90.496z"></path>
</symbol>

</svg>