<?xml version="1.0" encoding="utf-8"?>
<svg xmlns="http://www.w3.org/2000/svg">


<!-- Menu Top Bar -->
<symbol id="icoMenu" viewBox="0 0 448 512">
    <path d="M0 96C0 78.33 14.33 64 32 64H416C433.7 64 448 78.33 448 96C448 113.7 433.7 128 416 128H32C14.33 128 0 113.7 0 96zM0 256C0 238.3 14.33 224 32 224H416C433.7 224 448 238.3 448 256C448 273.7 433.7 288 416 288H32C14.33 288 0 273.7 0 256zM416 448H32C14.33 448 0 433.7 0 416C0 398.3 14.33 384 32 384H416C433.7 384 448 398.3 448 416C448 433.7 433.7 448 416 448z"></path>
</symbol>

<symbol id="icoHome" viewBox="0 0 576 512">
    <path d="M511.8 287.6L512.5 447.7C512.5 450.5 512.3 453.1 512 455.8V472C512 494.1 494.1 512 472 512H456C454.9 512 453.8 511.1 452.7 511.9C451.3 511.1 449.9 512 448.5 512H392C369.9 512 352 494.1 352 472V384C352 366.3 337.7 352 320 352H256C238.3 352 224 366.3 224 384V472C224 494.1 206.1 512 184 512H128.1C126.6 512 125.1 511.9 123.6 511.8C122.4 511.9 121.2 512 120 512H104C81.91 512 64 494.1 64 472V360C64 359.1 64.03 358.1 64.09 357.2V287.6H32.05C14.02 287.6 0 273.5 0 255.5C0 246.5 3.004 238.5 10.01 231.5L266.4 8.016C273.4 1.002 281.4 0 288.4 0C295.4 0 303.4 2.004 309.5 7.014L416 100.7V64C416 46.33 430.3 32 448 32H480C497.7 32 512 46.33 512 64V185L564.8 231.5C572.8 238.5 576.9 246.5 575.8 255.5C575.8 273.5 560.8 287.6 543.8 287.6L511.8 287.6z"></path>
</symbol>

<symbol id="icoProyectos" viewBox="0 0 576 512">
    <path d="M0 80C0 53.49 21.49 32 48 32H144C170.5 32 192 53.49 192 80V96H384V80C384 53.49 405.5 32 432 32H528C554.5 32 576 53.49 576 80V176C576 202.5 554.5 224 528 224H432C405.5 224 384 202.5 384 176V160H192V176C192 177.7 191.9 179.4 191.7 180.1L272 288H368C394.5 288 416 309.5 416 336V432C416 458.5 394.5 480 368 480H272C245.5 480 224 458.5 224 432V336C224 334.3 224.1 332.6 224.3 331L144 224H48C21.49 224 0 202.5 0 176V80z"></path>
</symbol>

<symbol id="icoHabilidades" viewBox="0 0 512 512">
    <path d="M156.6 384.9L125.7 354c-8.5-8.5-11.5-20.8-7.7-32.2c3-8.9 7-20.5 11.8-33.8L24 288c-8.6 0-16.6-4.6-20.9-12.1s-4.2-16.7 .2-24.1l52.5-88.5c13-21.9 36.5-35.3 61.9-35.3l82.3 0c2.4-4 4.8-7.7 7.2-11.3C289.1-4.1 411.1-8.1 483.9 5.3c11.6 2.1 20.6 11.2 22.8 22.8c13.4 72.9 9.3 194.8-111.4 276.7c-3.5 2.4-7.3 4.8-11.3 7.2v82.3c0 25.4-13.4 49-35.3 61.9l-88.5 52.5c-7.4 4.4-16.6 4.5-24.1 .2s-12.1-12.2-12.1-20.9V380.8c-14.1 4.9-26.4 8.9-35.7 11.9c-11.2 3.6-23.4 .5-31.8-7.8zM384 168a40 40 0 1 0 0-80 40 40 0 1 0 0 80z"/>
</symbol>

<symbol id="icoFormacion" viewBox="0 0 640 512">
    <path d="M320 32c-8.1 0-16.1 1.4-23.7 4.1L15.8 137.4C6.3 140.9 0 149.9 0 160s6.3 19.1 15.8 22.6l57.9 20.9C57.3 229.3 48 259.8 48 291.9v28.1c0 28.4-10.8 57.7-22.3 80.8c-6.5 13-13.9 25.8-22.5 37.6C0 442.7-.9 448.3 .9 453.4s6 8.9 11.2 10.2l64 16c4.2 1.1 8.7 .3 12.4-2s6.3-6.1 7.1-10.4c8.6-42.8 4.3-81.2-2.1-108.7C90.3 344.3 86 329.8 80 316.5V291.9c0-30.2 10.2-58.7 27.9-81.5c12.9-15.5 29.6-28 49.2-35.7l157-61.7c8.2-3.2 17.5 .8 20.7 9s-.8 17.5-9 20.7l-157 61.7c-12.4 4.9-23.3 12.4-32.2 21.6l159.6 57.6c7.6 2.7 15.6 4.1 23.7 4.1s16.1-1.4 23.7-4.1L624.2 182.6c9.5-3.4 15.8-12.5 15.8-22.6s-6.3-19.1-15.8-22.6L343.7 36.1C336.1 33.4 328.1 32 320 32zM128 408c0 35.3 86 72 192 72s192-36.7 192-72L496.7 262.6 354.5 314c-11.1 4-22.8 6-34.5 6s-23.5-2-34.5-6L143.3 262.6 128 408z"></path>
</symbol>

<symbol id="icoContacto" viewBox="0 0 512 512">
    <path d="M448 64H64C28.65 64 0 92.65 0 128v256c0 35.35 28.65 64 64 64h384c35.35 0 64-28.65 64-64V128C512 92.65 483.3 64 448 64zM64 112h384c8.822 0 16 7.178 16 16v22.16l-166.8 138.1c-23.19 19.28-59.34 19.27-82.47 .0156L48 150.2V128C48 119.2 55.18 112 64 112zM448 400H64c-8.822 0-16-7.178-16-16V212.7l136.1 113.4C204.3 342.8 229.8 352 256 352s51.75-9.188 71.97-25.98L464 212.7V384C464 392.8 456.8 400 448 400z"></path>
</symbol>

<!-- Portada -->
<symbol id="icoGitHub" viewBox="0 0 448 512">
    <path d="M400 32H48C21.5 32 0 53.5 0 80v352c0 26.5 21.5 48 48 48h352c26.5 0 48-21.5 48-48V80c0-26.5-21.5-48-48-48zM277.3 415.7c-8.4 1.5-11.5-3.7-11.5-8 0-5.4.2-33 .2-55.3 0-15.6-5.2-25.5-11.3-30.7 37-4.1 76-9.2 76-73.1 0-18.2-6.5-27.3-17.1-39 1.7-4.3 7.4-22-1.7-45-13.9-4.3-45.7 17.9-45.7 17.9-13.2-3.7-27.5-5.6-41.6-5.6-14.1 0-28.4 1.9-41.6 5.6 0 0-31.8-22.2-45.7-17.9-9.1 22.9-3.5 40.6-1.7 45-10.6 11.7-15.6 20.8-15.6 39 0 63.6 37.3 69 74.3 73.1-4.8 4.3-9.1 11.7-10.6 22.3-9.5 4.3-33.8 11.7-48.3-13.9-9.1-15.8-25.5-17.1-25.5-17.1-16.2-.2-1.1 10.2-1.1 10.2 10.8 5 18.4 24.2 18.4 24.2 9.7 29.7 56.1 19.7 56.1 19.7 0 13.9.2 36.5.2 40.6 0 4.3-3 9.5-11.5 8-66-22.1-112.2-84.9-112.2-158.3 0-91.8 70.2-161.5 162-161.5S388 165.6 388 257.4c.1 73.4-44.7 136.3-110.7 158.3zm-98.1-61.1c-1.9.4-3.7-.4-3.9-1.7-.2-1.5 1.1-2.8 3-3.2 1.9-.2 3.7.6 3.9 1.9.3 1.3-1 2.6-3 3zm-9.5-.9c0 1.3-1.5 2.4-3.5 2.4-2.2.2-3.7-.9-3.7-2.4 0-1.3 1.5-2.4 3.5-2.4 1.9-.2 3.7.9 3.7 2.4zm-13.7-1.1c-.4 1.3-2.4 1.9-4.1 1.3-1.9-.4-3.2-1.9-2.8-3.2.4-1.3 2.4-1.9 4.1-1.5 2 .6 3.3 2.1 2.8 3.4zm-12.3-5.4c-.9 1.1-2.8.9-4.3-.6-1.5-1.3-1.9-3.2-.9-4.1.9-1.1 2.8-.9 4.3.6 1.3 1.3 1.8 3.3.9 4.1zm-9.1-9.1c-.9.6-2.6 0-3.7-1.5s-1.1-3.2 0-3.9c1.1-.9 2.8-.2 3.7 1.3 1.1 1.5 1.1 3.3 0 4.1zm-6.5-9.7c-.9.9-2.4.4-3.5-.6-1.1-1.3-1.3-2.8-.4-3.5.9-.9 2.4-.4 3.5.6 1.1 1.3 1.3 2.8.4 3.5zm-6.7-7.4c-.4.9-1.7 1.1-2.8.4-1.3-.6-1.9-1.7-1.5-2.6.4-.6 1.5-.9 2.8-.4 1.3.7 1.9 1.8 1.5 2.6z"></path>
</symbol>

<symbol id="icoLinkedIn" viewBox="0 0 448 512">
    <path d="M416 32H31.9C14.3 32 0 46.5 0 64.3v383.4C0 465.5 14.3 480 31.9 480H416c17.6 0 32-14.5 32-32.3V64.3c0-17.8-14.4-32.3-32-32.3zM135.4 416H69V202.2h66.5V416zm-33.2-243c-21.3 0-38.5-17.3-38.5-38.5S80.9 96 102.2 96c21.2 0 38.5 17.3 38.5 38.5 0 21.3-17.2 38.5-38.5 38.5zm282.1 243h-66.4V312c0-24.8-.5-56.7-34.5-56.7-34.6 0-39.9 27-39.9 54.9V416h-66.4V202.2h63.7v29.2h.9c8.9-16.8 30.6-34.5 62.9-34.5 67.2 0 79.7 44.3 79.7 101.9V416z"></path>
</symbol>

<symbol id="icoCV" viewBox="0 0 24 24" >
    <path d="M12.6385 3.05526L12.8719 2.08289L12.6385 3.05526ZM13.9373 3.93726L13.2302 4.64437L13.9373 3.93726ZM13.2166 3.29472L13.7391 2.44208L13.2166 3.29472ZM6.09202 20.782L6.54601 19.891L6.09202 20.782ZM5.21799 19.908L6.10899 19.454L5.21799 19.908ZM17.908 20.782L17.454 19.891L17.908 20.782ZM18.782 19.908L17.891 19.454L18.782 19.908ZM18.0627 8.06274L18.7698 7.35563L18.0627 8.06274ZM18.7053 8.78343L19.5579 8.26093L18.7053 8.78343ZM18.9447 9.36154L19.9171 9.12809L18.9447 9.36154ZM5.21799 4.09202L6.10899 4.54601L5.21799 4.09202ZM6.09202 3.21799L6.54601 4.10899L6.09202 3.21799ZM13.9701 11.7575C13.8362 11.2217 13.2933 10.8959 12.7575 11.0299C12.2217 11.1638 11.8959 11.7067 12.0299 12.2425L13.9701 11.7575ZM14.5 18L13.5299 18.2425C13.6411 18.6877 14.0411 19 14.5 19C14.9589 19 15.3589 18.6877 15.4701 18.2425L14.5 18ZM16.9701 12.2425C17.1041 11.7067 16.7783 11.1638 16.2425 11.0299C15.7067 10.8959 15.1638 11.2217 15.0299 11.7575L16.9701 12.2425ZM11 19C11.5523 19 12 18.5523 12 18C12 17.4477 11.5523 17 11 17V19ZM9.23463 17.8478L8.85195 18.7716H8.85195L9.23463 17.8478ZM8.15224 16.7654L7.22836 17.1481H7.22836L8.15224 16.7654ZM11 13C11.5523 13 12 12.5523 12 12C12 11.4477 11.5523 11 11 11V13ZM9.23463 12.1522L8.85195 11.2284L9.23463 12.1522ZM8.15224 13.2346L7.22836 12.8519L8.15224 13.2346ZM14 3.17981C14 2.62752 13.5523 2.17981 13 2.17981C12.4477 2.17981 12 2.62752 12 3.17981H14ZM18.82 10C19.3723 10 19.82 9.55229 19.82 9C19.82 8.44772 19.3723 8 18.82 8V10ZM15.8 20H8.2V22H15.8V20ZM6 17.8V6.2H4V17.8H6ZM8.2 4H11.6745V2H8.2V4ZM18 10.3255V17.8H20V10.3255H18ZM11.6745 4C12.2113 4 12.3167 4.00643 12.405 4.02763L12.8719 2.08289C12.4999 1.99357 12.1161 2 11.6745 2V4ZM14.6444 3.23015C14.3321 2.91791 14.0653 2.64199 13.7391 2.44208L12.6941 4.14736C12.7715 4.19482 12.8506 4.2648 13.2302 4.64437L14.6444 3.23015ZM12.405 4.02763C12.5071 4.05213 12.6046 4.09253 12.6941 4.14736L13.7391 2.44208C13.4707 2.27759 13.178 2.15638 12.8719 2.08289L12.405 4.02763ZM8.2 20C7.62345 20 7.25117 19.9992 6.96784 19.9761C6.69617 19.9539 6.59545 19.9162 6.54601 19.891L5.63803 21.673C6.01641 21.8658 6.40963 21.9371 6.80497 21.9694C7.18864 22.0008 7.65645 22 8.2 22V20ZM4 17.8C4 18.3436 3.99922 18.8114 4.03057 19.195C4.06287 19.5904 4.13419 19.9836 4.32698 20.362L6.10899 19.454C6.0838 19.4045 6.04612 19.3038 6.02393 19.0322C6.00078 18.7488 6 18.3766 6 17.8H4ZM6.54601 19.891C6.35785 19.7951 6.20487 19.6422 6.10899 19.454L4.32698 20.362C4.6146 20.9265 5.07354 21.3854 5.63803 21.673L6.54601 19.891ZM15.8 22C16.3436 22 16.8114 22.0008 17.195 21.9694C17.5904 21.9371 17.9836 21.8658 18.362 21.673L17.454 19.891C17.4045 19.9162 17.3038 19.9539 17.0322 19.9761C16.7488 19.9992 16.3766 20 15.8 20V22ZM18 17.8C18 18.3766 17.9992 18.7488 17.9761 19.0322C17.9539 19.3038 17.9162 19.4045 17.891 19.454L19.673 20.362C19.8658 19.9836 19.9371 19.5904 19.9694 19.195C20.0008 18.8114 20 18.3436 20 17.8H18ZM18.362 21.673C18.9265 21.3854 19.3854 20.9265 19.673 20.362L17.891 19.454C17.7951 19.6422 17.6422 19.7951 17.454 19.891L18.362 21.673ZM17.3556 8.76985C17.7352 9.14941 17.8052 9.22849 17.8526 9.30593L19.5579 8.26093C19.358 7.93471 19.0821 7.66788 18.7698 7.35563L17.3556 8.76985ZM20 10.3255C20 9.8839 20.0064 9.50012 19.9171 9.12809L17.9724 9.59498C17.9936 9.6833 18 9.7887 18 10.3255H20ZM17.8526 9.30593C17.9075 9.3954 17.9479 9.49295 17.9724 9.59498L19.9171 9.12809C19.8436 8.82198 19.7224 8.52935 19.5579 8.26093L17.8526 9.30593ZM6 6.2C6 5.62345 6.00078 5.25117 6.02393 4.96784C6.04612 4.69617 6.0838 4.59545 6.10899 4.54601L4.32698 3.63803C4.13419 4.01641 4.06287 4.40963 4.03057 4.80497C3.99922 5.18864 4 5.65645 4 6.2H6ZM8.2 2C7.65645 2 7.18864 1.99922 6.80497 2.03057C6.40963 2.06287 6.01641 2.13419 5.63803 2.32698L6.54601 4.10899C6.59545 4.0838 6.69617 4.04612 6.96784 4.02393C7.25117 4.00078 7.62345 4 8.2 4V2ZM6.10899 4.54601C6.20487 4.35785 6.35785 4.20487 6.54601 4.10899L5.63803 2.32698C5.07354 2.6146 4.6146 3.07354 4.32698 3.63803L6.10899 4.54601ZM12.0299 12.2425L13.5299 18.2425L15.4701 17.7575L13.9701 11.7575L12.0299 12.2425ZM15.4701 18.2425L16.9701 12.2425L15.0299 11.7575L13.5299 17.7575L15.4701 18.2425ZM11 17C10.5204 17 10.2107 16.9995 9.97376 16.9833C9.74576 16.9677 9.65893 16.9411 9.61732 16.9239L8.85195 18.7716C9.17788 18.9066 9.50779 18.9561 9.83762 18.9787C10.1585 19.0005 10.5477 19 11 19V17ZM7 15C7 15.4523 6.99946 15.8415 7.02135 16.1624C7.04385 16.4922 7.09336 16.8221 7.22836 17.1481L9.07612 16.3827C9.05888 16.3411 9.03227 16.2542 9.01671 16.0262C9.00054 15.7893 9 15.4796 9 15H7ZM9.61732 16.9239C9.37229 16.8224 9.17761 16.6277 9.07612 16.3827L7.22836 17.1481C7.53284 17.8831 8.11687 18.4672 8.85195 18.7716L9.61732 16.9239ZM11 11C10.5477 11 10.1585 10.9995 9.83762 11.0213C9.50779 11.0439 9.17788 11.0934 8.85195 11.2284L9.61732 13.0761C9.65893 13.0589 9.74576 13.0323 9.97376 13.0167C10.2107 13.0005 10.5204 13 11 13V11ZM9 15C9 14.5204 9.00054 14.2107 9.01671 13.9738C9.03227 13.7458 9.05888 13.6589 9.07612 13.6173L7.22836 12.8519C7.09336 13.1779 7.04385 13.5078 7.02135 13.8376C6.99946 14.1585 7 14.5477 7 15H9ZM8.85195 11.2284C8.11686 11.5328 7.53284 12.1169 7.22836 12.8519L9.07612 13.6173C9.17761 13.3723 9.37229 13.1776 9.61732 13.0761L8.85195 11.2284ZM12 3.17981V8H14V3.17981H12ZM14 10H18.82V8H14V10ZM12 8C12 9.10457 12.8954 10 14 10V8V8H12ZM13.2302 4.64437L17.3556 8.76985L18.7698 7.35563L14.6444 3.23015L13.2302 4.64437Z"/>
</symbol>

<symbol id="anglesDown" viewBox="0 0 448 512">
    <path d="M246.6 470.6c-12.5 12.5-32.8 12.5-45.3 0l-160-160c-12.5-12.5-12.5-32.8 0-45.3s32.8-12.5 45.3 0L224 402.7 361.4 265.4c12.5-12.5 32.8-12.5 45.3 0s12.5 32.8 0 45.3l-160 160zm160-352l-160 160c-12.5 12.5-32.8 12.5-45.3 0l-160-160c-12.5-12.5-12.5-32.8 0-45.3s32.8-12.5 45.3 0L224 210.7 361.4 73.4c12.5-12.5 32.8-12.5 45.3 0s12.5 32.8 0 45.3z"/>
</symbol>

<!-- Habilidades -->

<symbol id="icoDesktop" viewBox="0 0 576 512">
    <path d="M64 0C28.7 0 0 28.7 0 64V352c0 35.3 28.7 64 64 64H240l-10.7 32H160c-17.7 0-32 14.3-32 32s14.3 32 32 32H416c17.7 0 32-14.3 32-32s-14.3-32-32-32H346.7L336 416H512c35.3 0 64-28.7 64-64V64c0-35.3-28.7-64-64-64H64zM512 64V288H64V64H512z"></path>
</symbol>

<symbol id="icoMobile" viewBox="0 0 384 512">
    <path d="M16 64C16 28.7 44.7 0 80 0H304c35.3 0 64 28.7 64 64V448c0 35.3-28.7 64-64 64H80c-35.3 0-64-28.7-64-64V64zM224 448a32 32 0 1 0 -64 0 32 32 0 1 0 64 0zM304 64H80V384H304V64z"></path>
</symbol>

<symbol id="icoLaptopCode" viewBox="0 0 640 512">
    <path d="M64 96c0-35.3 28.7-64 64-64H512c35.3 0 64 28.7 64 64V352H512V96H128V352H64V96zM0 403.2C0 392.6 8.6 384 19.2 384H620.8c10.6 0 19.2 8.6 19.2 19.2c0 42.4-34.4 76.8-76.8 76.8H76.8C34.4 480 0 445.6 0 403.2zM281 209l-31 31 31 31c9.4 9.4 9.4 24.6 0 33.9s-24.6 9.4-33.9 0l-48-48c-9.4-9.4-9.4-24.6 0-33.9l48-48c9.4-9.4 24.6-9.4 33.9 0s9.4 24.6 0 33.9zM393 175l48 48c9.4 9.4 9.4 24.6 0 33.9l-48 48c-9.4 9.4-24.6 9.4-33.9 0s-9.4-24.6 0-33.9l31-31-31-31c-9.4-9.4-9.4-24.6 0-33.9s24.6-9.4 33.9 0z"></path>
</symbol>

<symbol id="icoData" viewBox="0 0 448 512">
    <path d="M448 80v48c0 44.2-100.3 80-224 80S0 172.2 0 128V80C0 35.8 100.3 0 224 0S448 35.8 448 80zM393.2 214.7c20.8-7.4 39.9-16.9 54.8-28.6V288c0 44.2-100.3 80-224 80S0 332.2 0 288V186.1c14.9 11.8 34 21.2 54.8 28.6C99.7 230.7 159.5 240 224 240s124.3-9.3 169.2-25.3zM0 346.1c14.9 11.8 34 21.2 54.8 28.6C99.7 390.7 159.5 400 224 400s124.3-9.3 169.2-25.3c20.8-7.4 39.9-16.9 54.8-28.6V432c0 44.2-100.3 80-224 80S0 476.2 0 432V346.1z"></path>
</symbol>

<symbol id="icoNetwork" viewBox="0 0 640 512">
    <path d="M256 64H384v64H256V64zM240 0c-26.5 0-48 21.5-48 48v96c0 26.5 21.5 48 48 48h48v32H32c-17.7 0-32 14.3-32 32s14.3 32 32 32h96v32H80c-26.5 0-48 21.5-48 48v96c0 26.5 21.5 48 48 48H240c26.5 0 48-21.5 48-48V368c0-26.5-21.5-48-48-48H192V288H448v32H400c-26.5 0-48 21.5-48 48v96c0 26.5 21.5 48 48 48H560c26.5 0 48-21.5 48-48V368c0-26.5-21.5-48-48-48H512V288h96c17.7 0 32-14.3 32-32s-14.3-32-32-32H352V192h48c26.5 0 48-21.5 48-48V48c0-26.5-21.5-48-48-48H240zM96 448V384H224v64H96zm320-64H544v64H416V384z"/>
</symbol>

<symbol id="icoUnity" viewBox="0 0 448 512">
    <path d="M243.583 91.6027L323.695 138.384C326.575 140.026 326.68 144.583 323.695 146.225L228.503 201.854C225.623 203.55 222.22 203.444 219.549 201.854L124.357 146.225C121.425 144.636 121.373 139.973 124.357 138.384L204.417 91.6027V0L0 119.417V358.252L78.3843 312.477V218.914C78.3319 215.576 82.2066 213.192 85.0865 214.993L180.279 270.622C183.159 272.318 184.782 275.338 184.782 278.464V389.669C184.834 393.007 180.959 395.391 178.079 393.589L97.9673 346.808L19.583 392.583L224 512L428.417 392.583L350.033 346.808L269.921 393.589C267.093 395.338 263.114 393.06 263.218 389.669V278.464C263.218 275.126 265.051 272.159 267.721 270.622L362.914 214.993C365.741 213.245 369.72 215.47 369.616 218.914V312.477L448 358.252V119.417L243.583 0V91.6027Z"></path>
</symbol>

<symbol id="icoTools" viewBox="0 0 512 512">
    <path d="M176 88v40H336V88c0-4.4-3.6-8-8-8H184c-4.4 0-8 3.6-8 8zm-48 40V88c0-30.9 25.1-56 56-56H328c30.9 0 56 25.1 56 56v40h28.1c12.7 0 24.9 5.1 33.9 14.1l51.9 51.9c9 9 14.1 21.2 14.1 33.9V304H384V288c0-17.7-14.3-32-32-32s-32 14.3-32 32v16H192V288c0-17.7-14.3-32-32-32s-32 14.3-32 32v16H0V227.9c0-12.7 5.1-24.9 14.1-33.9l51.9-51.9c9-9 21.2-14.1 33.9-14.1H128zM0 416V336H128v16c0 17.7 14.3 32 32 32s32-14.3 32-32V336H320v16c0 17.7 14.3 32 32 32s32-14.3 32-32V336H512v80c0 35.3-28.7 64-64 64H64c-35.3 0-64-28.7-64-64z"/>
</symbol>


<!-- Proyectos -->

<symbol id="icoLinkGitHub" viewBox="0 0 496 512">
    <path d="M165.9 397.4c0 2-2.3 3.6-5.2 3.6-3.3.3-5.6-1.3-5.6-3.6 0-2 2.3-3.6 5.2-3.6 3-.3 5.6 1.3 5.6 3.6zm-31.1-4.5c-.7 2 1.3 4.3 4.3 4.9 2.6 1 5.6 0 6.2-2s-1.3-4.3-4.3-5.2c-2.6-.7-5.5.3-6.2 2.3zm44.2-1.7c-2.9.7-4.9 2.6-4.6 4.9.3 2 2.9 3.3 5.9 2.6 2.9-.7 4.9-2.6 4.6-4.6-.3-1.9-3-3.2-5.9-2.9zM244.8 8C106.1 8 0 113.3 0 252c0 110.9 69.8 205.8 169.5 239.2 12.8 2.3 17.3-5.6 17.3-12.1 0-6.2-.3-40.4-.3-61.4 0 0-70 15-84.7-29.8 0 0-11.4-29.1-27.8-36.6 0 0-22.9-15.7 1.6-15.4 0 0 24.9 2 38.6 25.8 21.9 38.6 58.6 27.5 72.9 20.9 2.3-16 8.8-27.1 16-33.7-55.9-6.2-112.3-14.3-112.3-110.5 0-27.5 7.6-41.3 23.6-58.9-2.6-6.5-11.1-33.3 2.6-67.9 20.9-6.5 69 27 69 27 20-5.6 41.5-8.5 62.8-8.5s42.8 2.9 62.8 8.5c0 0 48.1-33.6 69-27 13.7 34.7 5.2 61.4 2.6 67.9 16 17.7 25.8 31.5 25.8 58.9 0 96.5-58.9 104.2-114.8 110.5 9.2 7.9 17 22.9 17 46.4 0 33.7-.3 75.4-.3 83.6 0 6.5 4.6 14.4 17.3 12.1C428.2 457.8 496 362.9 496 252 496 113.3 383.5 8 244.8 8zM97.2 352.9c-1.3 1-1 3.3.7 5.2 1.6 1.6 3.9 2.3 5.2 1 1.3-1 1-3.3-.7-5.2-1.6-1.6-3.9-2.3-5.2-1zm-10.8-8.1c-.7 1.3.3 2.9 2.3 3.9 1.6 1 3.6.7 4.3-.7.7-1.3-.3-2.9-2.3-3.9-2-.6-3.6-.3-4.3.7zm32.4 35.6c-1.6 1.3-1 4.3 1.3 6.2 2.3 2.3 5.2 2.6 6.5 1 1.3-1.3.7-4.3-1.3-6.2-2.2-2.3-5.2-2.6-6.5-1zm-11.4-14.7c-1.6 1-1.6 3.6 0 5.9 1.6 2.3 4.3 3.3 5.6 2.3 1.6-1.3 1.6-3.9 0-6.2-1.4-2.3-4-3.3-5.6-2z"/>
</symbol>

<symbol id="icoLinkWeb" viewBox="0 0 512 512">
    <path d="M352 256c0 22.2-1.2 43.6-3.3 64H163.3c-2.2-20.4-3.3-41.8-3.3-64s1.2-43.6 3.3-64H348.7c2.2 20.4 3.3 41.8 3.3 64zm28.8-64H503.9c5.3 20.5 8.1 41.9 8.1 64s-2.8 43.5-8.1 64H380.8c2.1-20.6 3.2-42 3.2-64s-1.1-43.4-3.2-64zm112.6-32H376.7c-10-63.9-29.8-117.4-55.3-151.6c78.3 20.7 142 77.5 171.9 151.6zm-149.1 0H167.7c6.1-36.4 15.5-68.6 27-94.7c10.5-23.6 22.2-40.7 33.5-51.5C239.4 3.2 248.7 0 256 0s16.6 3.2 27.8 13.8c11.3 10.8 23 27.9 33.5 51.5c11.6 26 20.9 58.2 27 94.7zm-209 0H18.6C48.6 85.9 112.2 29.1 190.6 8.4C165.1 42.6 145.3 96.1 135.3 160zM8.1 192H131.2c-2.1 20.6-3.2 42-3.2 64s1.1 43.4 3.2 64H8.1C2.8 299.5 0 278.1 0 256s2.8-43.5 8.1-64zM194.7 446.6c-11.6-26-20.9-58.2-27-94.6H344.3c-6.1 36.4-15.5 68.6-27 94.6c-10.5 23.6-22.2 40.7-33.5 51.5C272.6 508.8 263.3 512 256 512s-16.6-3.2-27.8-13.8c-11.3-10.8-23-27.9-33.5-51.5zM135.3 352c10 63.9 29.8 117.4 55.3 151.6C112.2 482.9 48.6 426.1 18.6 352H135.3zm358.1 0c-30 74.1-93.6 130.9-171.9 151.6c25.5-34.2 45.2-87.7 55.3-151.6H493.4z"/>
</symbol>

<symbol id="icoBtnClose" viewBox="0 0 1024.00 1024.00">
    <path d="M195.2 195.2a64 64 0 0 1 90.496 0L512 421.504 738.304 195.2a64 64 0 0 1 90.496 90.496L602.496 512 828.8 738.304a64 64 0 0 1-90.496 90.496L512 602.496 285.696 828.8a64 64 0 0 1-90.496-90.496L421.504 512 195.2 285.696a64 64 0 0 1 0-90.496z"></path>
</symbol>

<!-- Contacto -->
<symbol id="icoCheckMail" viewBox="0 0 512 512">
    <path d="M256 512A256 256 0 1 0 256 0a256 256 0 1 0 0 512zM369 209L241 337c-9.4 9.4-24.6 9.4-33.9 0l-64-64c-9.4-9.4-9.4-24.6 0-33.9s24.6-9.4 33.9 0l47 47L335 175c9.4-9.4 24.6-9.4 33.9 0s9.4 24.6 0 33.9z"/>
</symbol>

<symbol id="icoSentMail" viewBox="0 0 512 512">
    <path d="M501.6 4.186c-7.594-5.156-17.41-5.594-25.44-1.063L12.12 267.1C4.184 271.7-.5037 280.3 .0431 289.4c.5469 9.125 6.234 17.16 14.66 20.69l153.3 64.38v113.5c0 8.781 4.797 16.84 12.5 21.06C184.1 511 188 512 191.1 512c4.516 0 9.038-1.281 12.99-3.812l111.2-71.46l98.56 41.4c2.984 1.25 6.141 1.875 9.297 1.875c4.078 0 8.141-1.031 11.78-3.094c6.453-3.625 10.88-10.06 11.95-17.38l64-432C513.1 18.44 509.1 9.373 501.6 4.186zM369.3 119.2l-187.1 208.9L78.23 284.7L369.3 119.2zM215.1 444v-49.36l46.45 19.51L215.1 444zM404.8 421.9l-176.6-74.19l224.6-249.5L404.8 421.9z"></path>
</symbol>

</svg>


